<?xml version="1.0" standalone="no"?>
<!DOCTYPE svg PUBLIC "-//W3C//DTD SVG 1.0//EN" "http://www.w3.org/TR/2001/REC-SVG-20010904/DTD/svg10.dtd">
<svg xmlns="http://www.w3.org/2000/svg" xmlns:xlink="http://www.w3.org/1999/xlink" id="body_1" width="126" height="20">

<g transform="matrix(0.10031848 0 0 0.10050251 0 0)">
    <path d="M0 0L0 199L923 199C 913.97 194.938 905.535 193.549 898.174 185.91C 880.556 167.626 881.972 136.45 902 120.669C 920.272 106.272 942.491 106.135 964 101C 963.263 98.5847 962.575 96.1501 961.121 94.0424C 957.467 88.744 950.143 86.9375 944 87.054C 930.125 87.3172 919.742 95.3291 907 99C 903.688 87.7404 895.918 76.1403 890 66C 899.152 62.1896 907.624 57.0291 917 53.6921C 945.091 43.6943 982.991 42.2718 1002.51 69.0008C 1006.64 74.6625 1009.39 81.2702 1011.25 88C 1016.03 105.226 1015 124.282 1015 142L1015 142L1015 179C 1015 183.065 1016.33 190.148 1013.97 193.682C 1012.08 196.516 1007.95 195.994 1005 196L1005 196L984 196C 980.983 195.999 976.954 196.584 974.513 194.397C 971.486 191.684 971.054 185.742 970 182C 958.214 187.252 949.827 197.368 936 198C 943.879 201.306 956.466 199 965 199L965 199L1030 199L1256 199L1256 0L0 0z" stroke="none" fill="#1F7F9C" fill-rule="nonzero" />
    <path d="M147 29C 138.865 17.6904 123.237 10.0538 110 6.62962C 74.7048 -2.50049 27.0426 6.75192 15.7461 47C 10.4024 66.0392 15.9887 88.5078 31.0039 101.711C 40.3458 109.925 51.7136 114.2 63 119C 72.1949 122.91 82.3389 125.885 91 130.88C 94.8483 133.099 99.1566 136.236 99.7276 141C 101.346 154.504 80.6234 155.061 72 153.536C 62.8428 151.918 53.8633 147.813 46 142.934C 43.221 141.21 38.7325 136.516 35.1698 137.458C 32.6831 138.115 30.7983 141.155 29.2469 143.001L29.2469 143.001L18.4136 156C 15.6052 159.374 8.38494 165.336 8.34491 169.996C 8.31514 173.462 12.5713 176.048 15 177.844C 23.0432 183.793 32.457 188.751 42 191.806C 74.5777 202.233 120.302 201.596 141.64 170C 154.979 150.25 156.297 120.537 139.816 102.004C 131.151 92.2607 118.94 86.9701 107 82.4244C 95.9071 78.201 83.1653 74.7011 73.0008 68.5208C 69.073 66.1327 64.384 62.1749 65.4776 57C 66.7632 50.9171 73.3779 47.6405 79 47.0687C 89.5408 45.9964 99.5655 48.0612 109 52.8094C 112.318 54.4794 117.038 59.2229 120.91 58.8866C 124.436 58.5804 127.223 53.4703 129.2 51C 135.089 43.6426 140.811 36.1065 147 29zM317 85L244 85L244 126L272 126L271.999 143C 271.982 145.579 272.167 148.475 270.397 150.581C 267.268 154.302 261.367 153.995 257 154C 244.623 154.015 232.146 150.929 223.184 141.826C 213.298 131.784 210.005 116.611 210 103C 209.99 76.2721 222.644 46.3026 254 46.7099C 260.311 46.7919 266.278 47.5535 272 50.3735C 277.209 52.9406 281.582 56.9166 287 59C 292.591 51.6555 299.059 44.9279 305.155 38C 307.386 35.4649 312.001 31.7678 311.833 28.0147C 311.667 24.3181 306.624 21.5577 304 19.6404C 295.016 13.077 284.847 7.73062 274 5.1304C 234.314 -4.38269 190.667 13.4226 170.428 49C 149.458 85.8638 153.305 144.076 185.004 173.91C 211.221 198.585 251.718 203.295 285 192.329C 294.462 189.212 309.134 183.67 315.397 175.535C 319.447 170.274 317 157.384 317 151L317 151L317 85z" stroke="none" fill="#FFFFFF" fill-rule="nonzero" />
    <path d="M692 7L692 195L738 195C 738 171.833 739.493 148.108 737.911 125C 736.817 109.037 733.33 92.9821 733 77C 738.38 88.5043 741.437 101.055 745.692 113C 750.497 126.489 756.24 139.827 761.85 153C 764.537 159.308 766.998 165.708 769.719 172C 770.703 174.274 771.531 177.459 773.649 178.972C 777.826 181.956 788.018 180 793 180C 795.926 169.766 800.929 159.841 804.989 150C 811.418 134.419 817.525 118.78 823.424 103C 826.898 93.7097 831.548 83.835 833 74C 834.139 80.7291 832.117 88.2477 831.285 95C 829.974 105.639 829.184 116.34 828.17 127C 826.051 149.264 828 172.629 828 195L828 195L875 195L875 7L838 7C 834.048 7 826.901 5.64642 823.51 8.02779C 821.153 9.68275 820.524 13.4671 819.576 16C 817.083 22.6547 814.708 29.3562 812.192 36C 806.043 52.2351 800.038 68.5998 794.344 85C 790.893 94.9422 788.265 105.377 784 115C 780.011 106.001 777.608 96.2716 774.308 87C 768.227 69.9135 761.7 52.8544 755 36C 752.367 29.3762 749.942 22.668 747.424 16C 746.453 13.4296 745.722 9.7243 743.351 8.02779C 740.02 5.64432 732.899 7 729 7L729 7L692 7z" stroke="none" fill="#50C5F9" fill-rule="nonzero" />
    <path d="M600 12C 598.998 24.7007 595.106 37.244 595 50L595 50L573 51L573 62C 551.848 49.0539 529.728 42.6516 505 48.0147C 479.372 53.573 459.879 77.1209 467.159 104C 472.008 121.905 489.015 131.206 505 137.6C 511.99 140.396 522.817 142.674 527.446 149.105C 532.973 156.783 521.935 160.821 516 160.821C 502.169 160.822 491.766 151.565 480 146C 473.21 156.903 463.73 166.481 458 178C 482.083 195.114 511.023 202.581 540 194.845C 566.079 187.882 584.843 160.837 574.239 134C 566.915 115.463 547.294 108.409 530 102.343C 525.18 100.653 512.449 97.1579 513.832 90.0147C 514.795 85.038 521.693 83.1362 526 83.3796C 537.501 84.0297 545.365 92.9434 556 95C 560.98 87.0032 566.835 79.1248 573 72L573 72L573 89L592 89L592 134C 592 150.266 592.392 167.759 603.329 181C 617.07 197.636 639.89 199.932 660 197.13C 664.541 196.498 674.968 196.224 677.968 192.272C 679.952 189.659 678.198 184.838 677.576 182C 675.678 173.345 673.79 164.677 672 156C 665.942 157.25 659.064 159.45 653 156.991C 646.084 154.186 642.612 147.086 642.09 140C 640.851 123.184 642 105.864 642 89L642 89L675 89L675 50L642 50L642 12L600 12z" stroke="none" fill="#FFFFFF" fill-rule="nonzero" />
    <path d="M819 16L820 17L819 16z" stroke="none" fill="#7FFFFF" fill-rule="nonzero" />
    <path d="M753 32L754 33L753 32z" stroke="none" fill="#00FFFF" fill-rule="nonzero" />
    <path d="M453 182C 451.124 171.604 442.788 159.777 437 151C 429.802 153.074 423.495 157.177 416 158.535C 398.208 161.759 379.481 154.866 375 136L375 136L457 136C 458.05 111.56 459.707 87.5913 443.482 67C 416.85 33.199 361.346 42.785 339.09 76C 312.971 114.979 325.063 176.932 372 193.305C 400.501 203.247 427.391 195.489 453 182z" stroke="none" fill="#FFFFFF" fill-rule="nonzero" />
    <path d="M890 66C 894.758 77.4276 902.109 87.6508 907 99C 922.629 96.2139 946.21 76.0637 960.442 94.0424C 962.111 96.1509 963.075 98.5124 964 101C 940.512 105.363 910.738 106.54 894.519 127.004C 876.206 150.109 887.361 190.438 917 197.497C 938.155 202.535 953.078 193.183 970 182L970 182L973 195L1014 195L1014 130C 1014 115.979 1015.03 101.711 1011.52 88C 1004.81 61.7664 982.492 47.1285 956 47.0008C 946.228 46.9536 936.491 48.0016 927 50.375C 914.003 53.6251 901.549 59.2589 890 66zM1070 68C 1068.91 62.358 1067.46 56.735 1067 51L1067 51L1025 51L1025 195L1076 195L1076 133C 1076 123.75 1074.04 111.975 1076.32 103.004C 1078.66 93.7543 1094.7 87.4981 1102.98 91.5725C 1112.05 96.0333 1111 109.505 1111 118L1111 118L1111 195L1161 195L1161 123C 1161 106.793 1162.11 90.5508 1156.66 75C 1154.8 69.6956 1151.98 64.4264 1148.47 60.0147C 1128.03 34.3027 1088.97 49.8434 1070 68z" stroke="none" fill="#50C5F9" fill-rule="nonzero" />
    <path d="M991 57L992 58L991 57z" stroke="none" fill="#00FFFF" fill-rule="nonzero" />
    <path d="M732 74L732 77C 732.696 75.4462 732.696 75.5538 732 74z" stroke="none" fill="#1F7F9C" fill-rule="nonzero" />
    <path d="M735 82L736 83L735 82z" stroke="none" fill="#7FFFFF" fill-rule="nonzero" />
    <path d="M374 105L415 105C 414.951 99.163 414.045 93.5193 409.786 89.1335C 403.421 82.5791 390.03 83.5153 383.04 88.6489C 377.714 92.5605 375.432 98.8113 374 105z" stroke="none" fill="#1F7F9C" fill-rule="nonzero" />
    <path d="M1107 94L1108 95L1107 94zM963 99L964 100L963 99zM1014 114L1015 115L1014 114z" stroke="none" fill="#00FFFF" fill-rule="nonzero" />
    <path d="M1014 115L1014 195C 1016.5 189.049 1015 180.42 1015 174L1015 174L1015 134C 1015 128.113 1016.29 120.462 1014 115z" stroke="none" fill="#33CCFF" fill-rule="nonzero" />
    <path d="M964 132C 955.314 132.374 944.461 134.822 938.133 141.185C 934.531 144.808 932.367 151.242 935.742 155.775C 942.067 164.271 958.774 159.162 962.972 150.985C 965.562 145.941 964 137.551 964 132z" stroke="none" fill="#1F7F9C" fill-rule="nonzero" />
    <path d="M1219 140.468C 1198.29 144.381 1192.15 171.649 1204.53 186.96C 1211.26 195.281 1222.84 197.453 1233 195.671C 1252.06 192.328 1259.97 167.484 1250.03 152C 1243.28 141.487 1230.78 138.241 1219 140.468z" stroke="none" fill="#50C5F9" fill-rule="nonzero" />
    <path d="M1224 146.479C 1197.21 149.611 1201.06 192.669 1228 189.521C 1255.08 186.357 1251.51 143.264 1224 146.479z" stroke="none" fill="#1F7F9C" fill-rule="nonzero" />
    <path d="M1239 181C 1237.96 178.817 1236.88 176.107 1234.67 174.814C 1231.94 173.222 1228.93 175.52 1226.05 174.469C 1220.82 172.552 1220.58 164.716 1225.22 161.966C 1227.89 160.388 1230.27 162.294 1233 161.917C 1236.25 161.466 1237.75 158.639 1239 156C 1235.78 153.905 1232.92 152.276 1229 152.044C 1224.81 151.796 1220.55 152.102 1217.04 154.653C 1204.23 163.986 1211.91 183.992 1227 183.992C 1231.45 183.992 1234.94 182.653 1239 181z" stroke="none" fill="#50C5F9" fill-rule="nonzero" />
    <path d="M890 175L891 176L890 175z" stroke="none" fill="#00FFFF" fill-rule="nonzero" />
    <path d="M900 188L901 189L900 188z" stroke="none" fill="#7F7FFF" fill-rule="nonzero" />
    <path d="M974 195C 978.215 196.769 983.464 196 988 196L988 196L1014 196C 1009.78 194.231 1004.54 195 1000 195L1000 195L974 195zM1026 195C 1030.72 196.98 1036.92 196 1042 196L1042 196L1075 196C 1070.28 194.019 1064.08 195 1059 195L1059 195L1026 195zM1111 195C 1115.72 196.981 1121.92 196 1127 196L1127 196L1161 196C 1156.28 194.019 1150.08 195 1145 195L1145 195L1111 195z" stroke="none" fill="#48B6FE" fill-rule="nonzero" />
</g>
</svg>